<?xml version="1.0" encoding="UTF-8" standalone="no"?>
<!DOCTYPE svg PUBLIC "-//W3C//DTD SVG 1.1//EN" "http://www.w3.org/Graphics/SVG/1.1/DTD/svg11.dtd">
<svg width="100%" height="100%" viewBox="0 0 48 48" version="1.1" xmlns="http://www.w3.org/2000/svg" xmlns:xlink="http://www.w3.org/1999/xlink" xml:space="preserve" style="fill-rule:evenodd;clip-rule:evenodd;stroke-linejoin:round;stroke-miterlimit:1.41421;">
    <rect id="Artboard1" x="0" y="0" width="48" height="48" style="fill:none;"/>
    <clipPath id="_clip1">
        <rect id="Artboard11" x="0" y="0" width="48" height="48"/>
    </clipPath>
    <g clip-path="url(#_clip1)">
        <g>
            <path d="M3.04,13.227C6.987,5.387 15.093,0 24.48,0C30.96,0 36.373,2.373 40.533,6.24L33.76,12.853C32.027,11.227 28.987,9.28 24.48,9.28C18.133,9.28 12.747,13.467 10.8,19.253C10.32,20.747 10.027,22.347 10.027,24C10.027,25.653 10.32,27.253 10.827,28.747L10.849,28.814C12.789,34.566 18.158,38.72 24.48,38.72C28.053,38.72 30.773,37.733 32.8,36.32L32.837,36.294C36.011,34.054 37.441,30.738 37.707,28.533L24.48,28.533L24.48,19.627L47.013,19.627C47.36,21.12 47.52,22.56 47.52,24.533C47.52,31.811 44.927,37.952 40.426,42.138L40.373,42.187C36.4,45.867 30.96,48 24.48,48C15.093,48 6.987,42.613 3.04,34.773C1.413,31.52 0.48,27.867 0.48,24C0.48,20.133 1.413,16.48 3.04,13.227Z"/>
        </g>
    </g>
</svg>
