<?xml version="1.0" encoding="UTF-8" standalone="no"?>
<!DOCTYPE svg PUBLIC "-//W3C//DTD SVG 1.1//EN" "http://www.w3.org/Graphics/SVG/1.1/DTD/svg11.dtd">
<svg width="100%" height="100%" viewBox="0 0 48 48" version="1.1" xmlns="http://www.w3.org/2000/svg" xmlns:xlink="http://www.w3.org/1999/xlink" xml:space="preserve" style="fill-rule:evenodd;clip-rule:evenodd;stroke-linejoin:round;stroke-miterlimit:1.41421;">
    <rect id="Artboard1" x="0" y="0" width="48" height="48" style="fill:none;"/>
    <clipPath id="_clip1">
        <rect id="Artboard11" x="0" y="0" width="48" height="48"/>
    </clipPath>
    <g clip-path="url(#_clip1)">
        <g transform="matrix(0.89681,0,0,0.89681,9.16514e-17,3.88456)">
            <g>
                <path d="M26.65,44.859C13.459,44.859 2.728,37.699 2.728,28.898C2.728,28.29 2.779,27.688 2.879,27.097C1.092,25.993 0,24.037 0,21.936C0.004,18.613 2.737,15.879 6.06,15.875C7.553,15.875 8.976,16.421 10.077,17.397C14.226,14.734 19.807,13.058 25.964,12.942L30.006,0.606L30.888,0.814L30.909,0.819L40.33,3.037C41.114,1.201 42.926,0.003 44.922,0.001C47.659,0.004 49.909,2.255 49.912,4.992C49.909,7.728 47.658,9.979 44.922,9.982C42.188,9.979 39.938,7.732 39.932,4.998L31.336,2.974L28.063,12.964C33.996,13.195 39.354,14.876 43.354,17.481C44.471,16.447 45.94,15.873 47.462,15.876C50.786,15.88 53.519,18.613 53.523,21.937C53.533,24.123 52.351,26.15 50.443,27.217C50.53,27.77 50.575,28.33 50.575,28.898C50.573,37.699 39.841,44.859 26.65,44.859ZM4.928,27.006C4.795,27.628 4.728,28.262 4.728,28.898C4.728,36.597 14.562,42.859 26.65,42.859C38.738,42.859 48.572,36.596 48.572,28.898C48.572,28.286 48.51,27.683 48.389,27.091C48.324,26.955 48.29,26.807 48.29,26.656C47.621,24.029 45.796,21.644 43.16,19.722C42.992,19.661 42.844,19.556 42.731,19.418C38.724,16.663 32.999,14.936 26.65,14.936C20.365,14.936 14.689,16.629 10.688,19.337C10.579,19.461 10.441,19.557 10.287,19.616C7.594,21.539 5.722,23.94 5.027,26.59C5.025,26.722 4.996,26.853 4.943,26.974C4.938,26.985 4.934,26.996 4.928,27.006L4.928,27.006ZM26.759,39.167C22.754,39.167 19.932,38.292 18.133,36.492C17.946,36.305 17.84,36.05 17.84,35.785C17.84,35.236 18.292,34.785 18.841,34.785C19.106,34.785 19.36,34.89 19.548,35.078C20.953,36.483 23.311,37.167 26.759,37.167C30.206,37.167 32.566,36.483 33.973,35.078C34.16,34.891 34.415,34.786 34.68,34.786C35.228,34.786 35.679,35.237 35.679,35.785C35.679,36.05 35.574,36.305 35.386,36.492C33.585,38.292 30.764,39.167 26.759,39.167ZM34.868,22.246C32.83,22.246 31.119,23.953 31.119,25.991C31.119,28.028 32.83,29.679 34.868,29.679C36.906,29.679 38.556,28.028 38.556,25.991C38.556,23.953 36.905,22.246 34.868,22.246L34.868,22.246ZM18.71,22.246C20.746,22.246 22.398,23.955 22.398,25.991C22.398,28.027 20.747,29.679 18.71,29.679C16.673,29.679 14.965,28.027 14.965,25.991C14.965,23.955 16.674,22.246 18.71,22.246ZM45.025,18.687C47.344,20.542 49.046,22.751 49.916,25.175C50.931,24.41 51.527,23.207 51.521,21.936C51.519,19.709 49.687,17.877 47.46,17.875C46.582,17.874 45.727,18.159 45.025,18.687ZM6.06,17.875C3.833,17.878 2.002,19.709 2,21.936C2,23.149 2.54,24.276 3.436,25.036C4.335,22.631 6.054,20.44 8.382,18.603C7.701,18.129 6.89,17.875 6.06,17.875ZM44.921,2C43.273,2 41.931,3.342 41.931,4.991C41.931,6.64 43.273,7.981 44.921,7.981C46.569,7.981 47.911,6.64 47.911,4.991C47.911,3.342 46.57,2 44.921,2L44.921,2Z"/>
            </g>
        </g>
    </g>
</svg>
