<?xml version="1.0" encoding="UTF-8" standalone="no"?>
<!DOCTYPE svg PUBLIC "-//W3C//DTD SVG 1.1//EN" "http://www.w3.org/Graphics/SVG/1.1/DTD/svg11.dtd">
<svg width="100%" height="100%" viewBox="0 0 48 48" version="1.1" xmlns="http://www.w3.org/2000/svg" xmlns:xlink="http://www.w3.org/1999/xlink" xml:space="preserve" style="fill-rule:evenodd;clip-rule:evenodd;stroke-linejoin:round;stroke-miterlimit:1.41421;">
    <rect id="Artboard1" x="0" y="0" width="48" height="48" style="fill:none;"/>
    <clipPath id="_clip1">
        <rect id="Artboard11" x="0" y="0" width="48" height="48"/>
    </clipPath>
    <g clip-path="url(#_clip1)">
        <g transform="matrix(0.127099,0,0,0.127099,-29.5016,-13.7207)">
            <g>
                <path d="M609.773,179.634C595.882,185.798 580.962,189.965 565.275,191.838C581.285,182.251 593.55,167.059 599.341,148.978C584.133,158.011 567.489,164.37 550.132,167.779C536.007,152.723 515.865,143.323 493.581,143.323C450.808,143.323 416.119,177.998 416.119,220.796C416.119,226.86 416.802,232.776 418.115,238.456C353.726,235.22 296.641,204.377 258.431,157.511C251.759,168.957 247.94,182.265 247.94,196.464C247.94,223.339 261.619,247.051 282.404,260.941C270.1,260.56 258.065,257.238 247.307,251.255L247.307,252.234C247.307,289.774 274.008,321.076 309.452,328.195C302.941,329.979 296.108,330.911 289.039,330.911C284.041,330.911 279.192,330.438 274.455,329.547C284.314,360.316 312.926,382.713 346.818,383.346C320.303,404.131 286.893,416.521 250.606,416.521C244.356,416.521 238.179,416.148 232.115,415.417C266.406,437.405 307.121,450.241 350.874,450.241C493.37,450.241 571.302,332.189 571.302,229.813C571.302,226.452 571.228,223.116 571.066,219.792C586.249,208.81 599.357,195.211 609.773,179.634L609.773,179.634Z" style="fill-rule:nonzero;"/>
            </g>
        </g>
    </g>
</svg>
